<!-- Imagem provisória da galeria — substitua pelas fotos reais em assets/galeria/.
     Gallery placeholder image — replace with the real photos in assets/galeria/. -->
<svg xmlns="http://www.w3.org/2000/svg" viewBox="0 0 1600 1100" width="1600" height="1100" role="img" aria-label="Foto / Photo">
  <defs>
    <linearGradient id="pg" x1="0" y1="0" x2="1" y2="1">
      <stop offset="0%" stop-color="#0b2239"/>
      <stop offset="60%" stop-color="#0d3049"/>
      <stop offset="100%" stop-color="#0a3d3a"/>
    </linearGradient>
    <pattern id="pp" width="64" height="64" patternUnits="userSpaceOnUse">
      <path d="M64 0H0v64" fill="none" stroke="#7fd4c8" stroke-width=".8" opacity=".12"/>
    </pattern>
  </defs>

  <rect width="1600" height="1100" fill="url(#pg)"/>
  <rect width="1600" height="1100" fill="url(#pp)"/>

  <g transform="translate(800 500)" fill="none" stroke="#4fb3a4" stroke-width="6"
     stroke-linecap="round" stroke-linejoin="round" opacity=".55">
    <path d="M-130-58h58l22-30h100l22 30h58a26 26 0 0 1 26 26v130a26 26 0 0 1-26 26h-260a26 26 0 0 1-26-26v-130a26 26 0 0 1 26-26Z"/>
    <circle cx="0" cy="38" r="52"/>
  </g>

  <text x="800" y="700" text-anchor="middle" fill="#c2a25c" opacity=".85"
        font-family="Segoe UI, Helvetica, Arial, sans-serif" font-size="34"
        font-weight="700" letter-spacing="14">FOTO · PHOTO</text>
</svg>
